<svg xmlns="http://www.w3.org/2000/svg" width="1200" height="800" viewBox="0 0 1200 800">
  <defs>
    <linearGradient id="bg" x1="0" y1="0" x2="1" y2="1">
      <stop offset="0%" stop-color="#6366f1"/>
      <stop offset="100%" stop-color="#a855f7"/>
    </linearGradient>
    <linearGradient id="shine" x1="0" y1="0" x2="0" y2="1">
      <stop offset="0%" stop-color="#ffffff" stop-opacity="0.28"/>
      <stop offset="100%" stop-color="#ffffff" stop-opacity="0"/>
    </linearGradient>
    <filter id="shadow" x="-20%" y="-20%" width="140%" height="140%">
      <feDropShadow dx="0" dy="12" stdDeviation="18" flood-color="#000" flood-opacity="0.25"/>
    </filter>
  </defs>
  <rect width="1200" height="800" rx="48" fill="url(#bg)"/>
  <path d="M 0 130 C 240 40, 520 220, 760 120 C 980 30, 1100 60, 1200 140 L 1200 0 L 0 0 Z" fill="url(#shine)"/>
  <g opacity="0.16" fill="#fff">
    <circle cx="160" cy="650" r="110"/>
    <circle cx="1040" cy="170" r="90"/>
    <circle cx="980" cy="680" r="55"/>
  </g>

  <g transform="translate(110,120)" filter="url(#shadow)">
    <rect x="0" y="0" width="980" height="560" rx="44" fill="#0b1220" fill-opacity="0.25" stroke="#fff" stroke-opacity="0.22"/>
    <g transform="translate(96,110)">
      <g fill="none" stroke="#fff" stroke-width="10" stroke-linecap="round" stroke-linejoin="round">
    <path d="M20 120l44-44 38 38"/>
    <path d="M220 120l-44-44-44 44"/>
    <path d="M102 114l18 18"/>
    <path d="M86 130l34 34c10 10 26 10 36 0l38-38"/>
    <path d="M64 76l-22 22"/>
    <path d="M176 76l22 22"/>
  </g>
    </g>
    <g transform="translate(96,360)" fill="#fff">
      <text x="0" y="0" font-family="-apple-system, BlinkMacSystemFont, 'PingFang SC', 'Noto Sans SC', 'Microsoft YaHei', sans-serif" font-size="56" font-weight="800">协调处理</text>
      <text x="0" y="64" font-family="-apple-system, BlinkMacSystemFont, 'PingFang SC', 'Noto Sans SC', 'Microsoft YaHei', sans-serif" font-size="28" font-weight="600" opacity="0.9">对接相关方</text>
    </g>
  </g>

  <g transform="translate(110,720)" fill="#fff" opacity="0.85">
    <text x="0" y="0" font-family="-apple-system, BlinkMacSystemFont, 'Noto Sans', sans-serif" font-size="22">Bourn Mark • Investment Property Management</text>
  </g>
</svg>